<mxfile host="65bd71144e">
    <diagram id="Nxp7cDSR4KkVDbGjo693" name="Page-1">
        <mxGraphModel dx="840" dy="663" grid="0" gridSize="10" guides="1" tooltips="1" connect="1" arrows="1" fold="1" page="1" pageScale="1" pageWidth="850" pageHeight="1100" background="none" math="0" shadow="1">
            <root>
                <mxCell id="0"/>
                <mxCell id="1" parent="0"/>
                <mxCell id="13" style="edgeStyle=none;html=1;" parent="1" source="12" edge="1">
                    <mxGeometry relative="1" as="geometry">
                        <mxPoint x="345" y="190" as="targetPoint"/>
                    </mxGeometry>
                </mxCell>
                <mxCell id="12" value="" style="rounded=1;whiteSpace=wrap;html=1;fillColor=#5169E2;fontColor=#ffffff;strokeColor=none;" parent="1" vertex="1">
                    <mxGeometry x="190" y="200" width="310" height="540" as="geometry"/>
                </mxCell>
                <mxCell id="14" value="" style="rounded=10;whiteSpace=wrap;html=1;fillColor=#d80073;fontColor=#ffffff;strokeColor=#A50040;" parent="1" vertex="1">
                    <mxGeometry x="290" y="210" width="100" height="20" as="geometry"/>
                </mxCell>
                <mxCell id="18" value="Container" style="swimlane;fillColor=#008a00;fontColor=#ffffff;strokeColor=#005700;" parent="1" vertex="1">
                    <mxGeometry x="200" y="260" width="290" height="200" as="geometry"/>
                </mxCell>
                <mxCell id="26" value="" style="edgeStyle=none;html=1;" edge="1" parent="1" source="21" target="25" visible="0">
                    <mxGeometry relative="1" as="geometry"/>
                </mxCell>
                <mxCell id="21" value="Sub Section" style="whiteSpace=wrap;html=1;align=center;verticalAlign=middle;treeFolding=1;treeMoving=1;fillColor=#d80073;fontColor=#ffffff;strokeColor=#A50040;" parent="1" vertex="1" collapsed="1">
                    <mxGeometry x="200" y="480" width="100" height="60" as="geometry"/>
                </mxCell>
                <mxCell id="22" value="Sub Section" style="whiteSpace=wrap;html=1;align=center;verticalAlign=middle;treeFolding=1;treeMoving=1;fillColor=#008a00;fontColor=#ffffff;strokeColor=#005700;" parent="1" vertex="1">
                    <mxGeometry x="390" y="480" width="100" height="60" as="geometry"/>
                </mxCell>
                <UserObject label="Organization" treeRoot="1" id="23">
                    <mxCell style="whiteSpace=wrap;html=1;align=center;treeFolding=1;treeMoving=1;newEdgeStyle={&quot;edgeStyle&quot;:&quot;elbowEdgeStyle&quot;,&quot;startArrow&quot;:&quot;none&quot;,&quot;endArrow&quot;:&quot;none&quot;};fillColor=#a20025;fontColor=#ffffff;strokeColor=#6F0000;" parent="1" vertex="1">
                        <mxGeometry x="280" y="580" width="120" height="60" as="geometry"/>
                    </mxCell>
                </UserObject>
                <mxCell id="25" value="" style="whiteSpace=wrap;html=1;fillColor=#d80073;strokeColor=#A50040;fontColor=#ffffff;" vertex="1" visible="0" parent="1">
                    <mxGeometry x="370" y="480" width="120" height="60" as="geometry"/>
                </mxCell>
            </root>
        </mxGraphModel>
    </diagram>
</mxfile>